<svg xmlns="http://www.w3.org/2000/svg" xml:space="preserve" width="800" height="800" data-version="2">
    <rect width="100%" height="100%" fill="#111"/>
    <g transform="matrix(5.6006 0 0 5.6006 397.2 397.2)">
        <linearGradient id="a" x1="0" x2="1" y1="0" y2="0" gradientUnits="objectBoundingBox">
            <stop offset="0%" stop-color="#ffa62e"/>
            <stop offset="100%" stop-color="#f71b3d"/>
        </linearGradient>
        <path fill="url(#a)" d="M93.84 82.06V31.19H74.13q-.045-.615-.12-1.23l6.45-3.72-9.21-15.95-6.45 3.72a24 24 0 0 0-5.59-3.23V3.34H40.79v7.44c-2 .82-3.88 1.91-5.59 3.23l-6.45-3.72-9.21 15.95 6.45 3.72q-.075.615-.12 1.23H6.16v50.87H.5v7.54c0 3.89 3.17 7.06 7.06 7.06h84.87c3.9 0 7.06-3.17 7.06-7.06v-7.54zM30.15 37.08c-.25-1.28-.38-2.59-.38-3.89 0-1.3.13-2.61.38-3.89l.27-1.4-5.41-3.13 5.21-9.02 5.42 3.13 1.08-.94a20.1 20.1 0 0 1 6.73-3.89l1.35-.46V7.34h10.42v6.25l1.35.46c2.48.85 4.74 2.16 6.73 3.89l1.08.94 5.42-3.13 5.21 9.02-5.41 3.13.27 1.4c.25 1.28.37 2.59.37 3.89 0 1.3-.13 2.61-.37 3.89l-.27 1.4 5.41 3.13-5.21 9.02-5.42-3.13-1.08.94a20.2 20.2 0 0 1-6.73 3.89l-1.35.46v6.25H44.79v-6.25l-1.35-.46c-2.48-.85-4.74-2.16-6.73-3.89l-1.08-.94-5.42 3.13L25 41.61l5.41-3.13zm-19.99-1.89h15.71q.045.615.12 1.23l-6.45 3.72 9.21 15.95 6.45-3.72c1.72 1.33 3.59 2.41 5.59 3.23v7.44h18.42V55.6c2-.82 3.87-1.9 5.59-3.23l6.45 3.72 9.21-15.95-6.45-3.72q.075-.615.12-1.23h15.71v46.87H61.88l-1.2 3.75H39.32l-1.2-3.75H10.16zM95.5 89.6c0 1.69-1.38 3.06-3.06 3.06H7.56A3.06 3.06 0 0 1 4.5 89.6v-3.54h30.7l1.2 3.75h27.2l1.2-3.75h30.7z" transform="translate(-49.995 -50)"/>
    </g>
    <g transform="matrix(5.6006 0 0 5.6006 397.256 303.026)">
        <linearGradient id="b" x1="0" x2="1" y1="0" y2="0" gradientUnits="objectBoundingBox">
            <stop offset="0%" stop-color="#ffa62e"/>
            <stop offset="100%" stop-color="#f71b3d"/>
        </linearGradient>
        <path fill="url(#b)" d="M50 37.7c-1.32 0-2.4-1.08-2.4-2.4h-4c0 2.83 1.85 5.23 4.4 6.07v2.84h4v-2.84c2.55-.84 4.4-3.24 4.4-6.07v-1.26l-8.51-4.1c.4-.76 1.2-1.28 2.12-1.28 1.32 0 2.4 1.08 2.4 2.4h4c0-2.83-1.85-5.23-4.4-6.07v-2.83h-4V25c-2.55.84-4.4 3.24-4.4 6.07v1.26l8.51 4.1c-.41.76-1.2 1.27-2.12 1.27" transform="translate(-50.005 -33.185)"/>
    </g>
    <g transform="matrix(5.6006 0 0 5.6006 397.228 303.054)">
        <linearGradient id="c" x1="0" x2="1" y1="0" y2="0" gradientUnits="objectBoundingBox">
            <stop offset="0%" stop-color="#ffa62e"/>
            <stop offset="100%" stop-color="#f71b3d"/>
        </linearGradient>
        <path fill="url(#c)" d="M50 50.08c9.31 0 16.89-7.58 16.89-16.89S59.31 16.3 50 16.3s-16.89 7.58-16.89 16.89S40.69 50.08 50 50.08m0-29.78c7.11 0 12.89 5.78 12.89 12.89S57.11 46.08 50 46.08 37.11 40.3 37.11 33.19 42.89 20.3 50 20.3" transform="translate(-50 -33.19)"/>
    </g>
</svg>
